_________________________  Visit us at _________________________
  
http://p2pdl.com  ____________________________  http://p2pdl.com


Sightseers 2012 BRRip 720p x264 AAC - PRiSTiNE


Genre: Comedy 
Plot: Chris wants to show girlfriend Tina his world, but events soon conspire against the couple and
their dream caravan holiday takes a very wrong turn..
Director: Ben Wheatley
Stars: Alice Lowe, Steve Oram, Eileen Davies.
Rated: N/a


Info: 
http://www.imdb.com/title/tt2023690/

Trailer:


General
Format                         : MPEG-4
File size                      : 495 MiB
Duration                       : 1h 28mn
Overall bit rate               : 786 Kbps
Format                         : AVC
Bit rate                       : 699 Kbps
Width                          : 1 280 pixels
Height                         : 544 pixels
Display aspect ratio           : 2.35:1
Frame rate mode                : Constant
Frame rate                     : 23.976 fps
Stream size                    : 440 MiB (89%)
Writing library                : x264 core 129 r2245
Audio Format                   : AAC
Audio Bit rate                 : 84.0 Kbps
Channel(s)                     : 2 channels
Channel positions              : Front: L R
Sampling rate                  : 48.0 KHz
Stream size                    : 53.0 MiB (11%)
Language                       : English
Subtitle                       : Yes(English)
Source                         : LIMITED.720p.BluRay.x264-GECKOS(Thanks)

Screens:
 
http://i.imgbox.com/abpkrNkV.jpg 
http://i.imgbox.com/adl7nXZY.jpg 
http://i.imgbox.com/adyVKGVt.jpg 
http://i.imgbox.com/abrJFHPD.jpg 
http://i.imgbox.com/adyPdkex.jpg


----------------------------------------------------------------------------------------------------


Recommend to you to use latest version of VLC player. Install K-Lite Codec Pack or shark007 codecs
in case of any kind of problem in playback (For non-VLC Media Player users). Alternatively, install
Core AVC codecs, the fastest decoder that there is coupled with Community Center Codec Pack and play
on Windows Media Player Classic. Check sample to be sure.
Enjoy!

Encoder Notes: Encoder Notes: Looking For Early Access To Anything You Can Provide DVDScr, R5, DVDR, BluRay, Direct
Audio, Music Releases and Seedboxes. We require dedicated servers, so as to do more and fast releases of movies.
If You Got anything to offer contact us at "prg@hush.com".
Fan Page: www.fb.me/p2pdl